<svg xmlns="http://www.w3.org/2000/svg" width="1000" height="1000" viewBox="0 0 1000 1000" version="1.1"><path d="M 98.618 144.043 C 50.557 156.181, 53.535 250.988, 102.065 253.798 C 116.907 254.657, 126.202 249.536, 132.210 237.192 L 135.467 230.500 135.830 208.250 L 136.193 186 118.096 186 L 100 186 100 195 L 100 204 109.118 204 L 118.236 204 117.810 216.750 C 117.206 234.815, 115.256 238.004, 104.816 237.996 C 90.471 237.986, 83.492 225.540, 83.511 200 C 83.533 168.680, 91.836 159.179, 118.246 160.250 L 131 160.767 131 153.978 L 131 147.188 126.250 145.552 C 120.530 143.583, 104.013 142.681, 98.618 144.043 M 693.173 144.030 C 675.092 146.504, 667.145 154.677, 666.203 171.764 C 665.152 190.832, 670.736 197.136, 696.074 205.488 C 716.918 212.358, 722.770 222.552, 711.725 232.753 C 706.036 238.008, 683.216 238.411, 670.750 233.478 C 669.172 232.854, 669 233.568, 669 240.751 L 669 248.716 677.750 251.108 C 712.551 260.622, 735.485 248.138, 733.755 220.623 C 732.625 202.635, 725.925 195.749, 704 190.039 C 686.786 185.555, 681.059 178.973, 685.379 168.636 C 689.356 159.118, 698.922 157.399, 724.293 161.641 L 728.085 162.276 727.793 153.913 L 727.500 145.550 723.500 144.886 C 715.938 143.629, 699.492 143.165, 693.173 144.030 M 893 144.045 C 874.882 146.502, 867.096 154.664, 866.206 172.132 C 865.251 190.885, 870.820 197.108, 896.094 205.531 C 917.126 212.541, 922.963 223.076, 911.395 233.151 C 905.803 238.021, 882.701 238.208, 870.750 233.478 C 869.172 232.854, 869 233.568, 869 240.751 L 869 248.716 877.750 251.108 C 910.827 260.151, 934 248.929, 934 223.868 C 934 204.354, 927.399 196.658, 905.318 190.428 C 887.151 185.302, 881.871 180.049, 884.860 170.074 C 888.042 159.453, 898.144 157.294, 924.293 161.644 L 928.085 162.276 927.793 153.913 L 927.500 145.550 923.500 144.886 C 915.882 143.620, 899.471 143.168, 893 144.045 M 266.289 185.750 C 267.183 246.979, 269.952 252.862, 298.324 253.817 C 329.684 254.873, 334 245.916, 334 179.776 L 334 144 325.137 144 L 316.273 144 315.553 186.250 C 314.671 238.011, 315.002 236.952, 299.700 236.985 C 284.182 237.019, 284.587 238.329, 284.167 186.750 L 283.818 144 274.749 144 L 265.680 144 266.289 185.750 M 471.667 144.667 C 471.300 145.033, 471 169.783, 471 199.667 L 471 254 497.750 253.989 C 512.462 253.983, 526.188 253.699, 528.250 253.358 L 532 252.738 532 244.869 L 532 237 510.500 237 L 489 237 489 220.500 L 489 204 508 204 L 527 204 527 196 L 527 188 508 188 L 489 188 489 174 L 489 160 508.418 160 C 532.543 160, 531 160.588, 531 151.393 L 531 144 501.667 144 C 485.533 144, 472.033 144.300, 471.667 144.667 M 267 456.500 L 267 464 279.500 464 L 292 464 292 511.500 L 292 559 301 559 L 310 559 310 511.500 L 310 464 322 464 L 334 464 334 456.500 L 334 449 300.500 449 L 267 449 267 456.500 M 465 504 L 465 559 474 559 L 483 559 483 532.500 L 483 506 501 506 L 519 506 519 532.539 L 519 559.078 527.750 558.789 L 536.500 558.500 536.484 544.250 C 536.475 536.413, 536.363 511.775, 536.234 489.500 L 536 449 527.521 449 L 519.042 449 518.771 468.750 L 518.500 488.500 500.750 488.773 L 483 489.046 483 469.023 L 483 449 474 449 L 465 449 465 504 M 672 504.079 L 672 559.158 701.418 558.829 C 735.310 558.450, 731.785 559.463, 732.185 549.982 L 732.500 542.500 711.250 542.230 L 690 541.960 690 525.480 L 690 509 709 509 L 728 509 728 501 L 728 493 709 493 L 690 493 690 479 L 690 465 708.918 465 C 732.482 465, 731 465.578, 731 456.393 L 731 449 701.500 449 L 672 449 672 504.079 M 392.355 751.978 C 354.110 760.117, 351.342 850.217, 389 861.189 C 420.659 870.413, 437.880 850.824, 437.958 805.500 C 438.029 763.416, 422.769 745.505, 392.355 751.978 M 153.009 755.212 C 153.019 758.825, 154.476 771.864, 159.019 809 C 160.668 822.475, 162.707 839.350, 163.551 846.500 C 164.395 853.650, 165.277 860.063, 165.511 860.750 C 165.873 861.811, 190.994 862.796, 191.002 861.750 C 191.003 861.612, 192.142 853.850, 193.534 844.500 C 194.925 835.150, 197.163 819.899, 198.506 810.609 C 201.223 791.822, 201.570 790.695, 202.489 797.658 C 202.841 800.321, 204.213 810.150, 205.537 819.500 C 206.862 828.850, 208.663 841.892, 209.540 848.482 C 210.416 855.072, 211.666 860.803, 212.317 861.217 C 213.722 862.111, 232.201 862.040, 236.500 861.125 L 239.500 860.486 240.714 845.493 C 242.581 822.451, 245.900 788.279, 248.048 770 C 249.114 760.925, 249.990 753.163, 249.993 752.750 C 250.002 751.721, 232.244 751.795, 231.607 752.827 C 231.326 753.281, 230.390 761.944, 229.527 772.077 C 225.708 816.917, 225.028 825.048, 224.355 834 C 223.457 845.937, 223.265 845.131, 218.497 809.500 C 216.511 794.650, 214.236 777.942, 213.443 772.372 C 212.649 766.801, 212 761.048, 212 759.588 L 212 756.932 201.250 757.216 L 190.500 757.500 189.716 764.500 C 187.589 783.485, 181.858 828.260, 180.820 834 C 179.030 843.894, 177.824 834.063, 172.663 767.500 L 171.500 752.500 162.250 752.212 L 153 751.925 153.009 755.212 M 570 807 L 570 862 578.500 862 L 587 862 587 840 L 587 818 594.750 818.006 L 602.500 818.012 606.417 831.756 C 608.571 839.315, 611.536 849.100, 613.006 853.500 L 615.677 861.500 625.367 861.787 L 635.056 862.073 634.376 859.287 C 633.668 856.392, 624.407 829.095, 621.285 820.702 L 619.500 815.905 623.614 812.482 C 630.796 806.508, 632.500 801.046, 632.500 784 C 632.500 756.794, 626.027 752, 589.290 752 L 570 752 570 807 M 790.780 752.530 C 790.385 752.938, 784.647 753.197, 778.030 753.104 L 766 752.936 766 807.589 L 766 862.242 787.750 861.746 C 828.233 860.824, 837.189 850.660, 837.317 805.500 C 837.426 766.799, 828.491 753.271, 802.121 752.213 C 796.279 751.979, 791.176 752.121, 790.780 752.530 M 396.450 766.407 C 379.692 773.706, 378.587 837.013, 395.069 845.536 C 412.651 854.627, 422.369 830.625, 418.187 788.441 C 416.263 769.034, 408.496 761.160, 396.450 766.407 M 591.500 765.864 L 587.500 766.500 587.228 785.250 L 586.956 804 597.055 804 C 606.807 804, 607.251 803.903, 609.983 801.171 C 617.703 793.451, 616.506 768.223, 608.344 766.653 C 602.770 765.581, 595.439 765.237, 591.500 765.864 M 792.500 767.631 C 791.400 767.906, 789.038 768.586, 787.250 769.143 L 784 770.155 784 808.578 L 784 847 792.750 846.994 C 814.779 846.980, 817.500 842.583, 817.500 807 C 817.500 771.033, 812.215 762.711, 792.500 767.631" stroke="none" fill="#ffffff" fill-rule="evenodd"/><path d="M 247 81.278 C 234.848 86.187, 226.121 94.299, 220.715 105.712 L 217.500 112.500 217.500 196 L 217.500 279.500 220.749 286.141 C 232.819 310.812, 240.063 313.184, 302.143 312.796 L 349.500 312.500 356.141 309.251 C 367.831 303.532, 376.345 294.408, 381.103 282.500 L 383.500 276.500 383.808 199.500 C 384.126 120.014, 383.951 115.683, 380.067 106.686 C 375.857 96.935, 365.869 86.940, 355.157 81.759 C 347.839 78.219, 255.589 77.809, 247 81.278 M 416.476 196 C 416.476 238.075, 416.599 255.288, 416.750 234.250 C 416.900 213.213, 416.900 178.788, 416.750 157.750 C 416.599 136.713, 416.476 153.925, 416.476 196 M 583.476 196 C 583.476 238.075, 583.599 255.288, 583.750 234.250 C 583.900 213.213, 583.900 178.788, 583.750 157.750 C 583.599 136.713, 583.476 153.925, 583.476 196 M 266.201 186.750 C 266.701 247.658, 270.117 254.517, 299.929 254.489 C 329.973 254.460, 333.248 247.857, 333.775 186.250 L 334.136 144 325.068 144 C 314.143 144, 315.770 136.995, 315.083 187 C 314.441 233.784, 314.622 232.528, 308.099 235.623 C 302.684 238.193, 291.619 237.073, 288.149 233.604 L 285.500 230.956 285.219 187.478 L 284.939 144 275.394 144 L 265.849 144 266.201 186.750 M 451.618 384.112 C 437.270 387.481, 423.638 400.732, 418.964 415.855 C 416.714 423.137, 415.901 572.520, 418.061 581.888 C 424.817 611.196, 440.277 617.960, 500.500 617.960 C 549.705 617.960, 555.945 616.842, 568.520 605.773 C 584.385 591.809, 584.162 593.391, 583.801 497.447 L 583.500 417.394 579.797 409.947 C 573.382 397.043, 564.801 389.312, 552.171 385.058 C 545.503 382.811, 460.562 382.013, 451.618 384.112 M 464.474 449.211 C 464.202 449.920, 464.097 475.025, 464.240 505 L 464.500 559.500 473.750 559.788 L 483 560.075 483 533.038 L 483 506 500.500 506 L 518 506 518 532.500 L 518 559 527.508 559 L 537.017 559 536.758 503.750 L 536.500 448.500 527.500 448.500 L 518.500 448.500 518.229 468.250 L 517.958 488 500.500 488 L 483.042 488 482.771 468.250 L 482.500 448.500 473.734 448.211 C 467.285 447.998, 464.837 448.262, 464.474 449.211 M 551.734 688.069 C 537.155 691.576, 523.551 704.791, 518.960 719.905 C 516.998 726.367, 516.950 728.746, 517.221 806.525 L 517.500 886.500 521.250 894.354 C 525.955 904.209, 534.006 912.401, 543.651 917.149 L 550.458 920.500 600.500 920.500 L 650.542 920.500 657.021 917.278 C 669.223 911.209, 677.756 901.598, 681.923 889.228 C 685.114 879.758, 685.173 730.009, 681.991 719.705 C 677.968 706.680, 668.836 696.554, 655.468 690.295 L 649.500 687.500 602.500 687.332 C 576.650 687.239, 553.806 687.571, 551.734 688.069 M 569.005 797.250 C 569.008 822.138, 569.301 846.888, 569.656 852.250 L 570.302 862 578.631 862 L 586.961 862 587.230 840.250 L 587.500 818.500 594.695 818.207 L 601.890 817.915 604.054 825.207 C 605.244 829.218, 608.008 838.350, 610.195 845.500 C 612.383 852.650, 614.411 859.288, 614.703 860.250 C 615.386 862.504, 635 862.951, 635 860.713 C 635 859.279, 626.723 834.473, 622.526 823.326 L 619.825 816.153 623.985 812.395 C 636.990 800.645, 637.695 770.043, 625.220 758.806 C 618.689 752.924, 613.885 752, 589.818 752 L 569 752 569.005 797.250 M 588.750 767.080 C 587.186 767.991, 587 770.009, 587 786.050 L 587 804 596.600 804 C 612.547 804, 620.624 787.588, 612.754 771.175 C 610.497 766.466, 594.491 763.736, 588.750 767.080" stroke="none" fill="#125b9a" fill-rule="evenodd"/><path d="M 450.024 80.584 C 435.745 84.471, 423.421 96.549, 418.895 111.091 C 415.830 120.936, 415.977 271.846, 419.060 281.229 C 423.208 293.853, 433.816 304.962, 446.676 310.150 L 452.500 312.500 500 312.500 C 547.322 312.500, 547.521 312.491, 553.225 310.188 C 566.122 304.978, 576.183 294.693, 580.586 282.220 L 582.958 275.500 582.979 196.355 C 582.999 120.304, 582.923 116.960, 581.023 110.808 C 577.280 98.692, 566.067 86.613, 554.042 81.744 C 546.793 78.809, 460.099 77.842, 450.024 80.584 M 471.667 144.667 C 471.300 145.033, 471 169.783, 471 199.667 L 471 254 497.750 253.989 C 512.462 253.983, 526.188 253.699, 528.250 253.358 L 532 252.738 532 244.869 L 532 237 510.500 237 L 489 237 489 220.500 L 489 204 508 204 L 527 204 527 196 L 527 188 508 188 L 489 188 489 174 L 489 160 508.418 160 C 532.543 160, 531 160.588, 531 151.393 L 531 144 501.667 144 C 485.533 144, 472.033 144.300, 471.667 144.667 M 250.945 384.861 C 233.825 390.414, 222.464 402.452, 218.508 419.231 C 216.641 427.147, 216.265 569.606, 218.084 579.566 C 221.178 596.506, 234.066 610.475, 251.197 615.455 C 260.233 618.082, 347.495 617.350, 354 614.593 C 365.002 609.930, 374.801 600.943, 379.477 591.230 C 384.076 581.674, 384.149 580.088, 383.815 497 L 383.500 418.500 380.912 412.362 C 376.005 400.726, 365.732 390.571, 354 385.757 C 346.195 382.554, 260.358 381.808, 250.945 384.861 M 464.459 449.250 C 464.196 449.938, 464.097 475.025, 464.240 505 L 464.500 559.500 473.500 559.556 L 482.500 559.612 473.750 559.269 L 465 558.925 465 504.001 L 465 449.078 473.750 448.745 L 482.500 448.411 473.719 448.206 C 467.457 448.059, 464.800 448.359, 464.459 449.250 M 518.703 448.631 C 518.316 449.017, 518 458.023, 518 468.644 L 518 487.954 500.250 488.264 L 482.500 488.573 500.500 488.537 L 518.500 488.500 518.771 468.750 L 519.042 449 527.510 449 L 535.978 449 536.256 489.250 L 536.534 529.500 536.517 489 L 536.500 448.500 527.953 448.214 C 523.252 448.057, 519.089 448.244, 518.703 448.631 M 267 456.500 L 267 464 279.500 464 L 292 464 292 511.500 L 292 559 301 559 L 310 559 310 511.500 L 310 464 322 464 L 334 464 334 456.500 L 334 449 300.500 449 L 267 449 267 456.500 M 152.500 688.368 C 135.920 692.470, 122.520 706.213, 118.508 723.231 C 116.695 730.920, 116.260 873.823, 118.021 883.109 C 124.081 915.063, 138.129 921.259, 203.500 920.814 L 249.500 920.500 256.443 917.212 C 269.360 911.096, 277.952 901.370, 281.991 888.295 C 284.728 879.434, 285.149 731.832, 282.467 721.535 C 278.660 706.920, 267.919 695.229, 253.168 689.645 C 246.222 687.016, 162.271 685.951, 152.500 688.368 M 153.009 755.212 C 153.019 758.825, 154.476 771.864, 159.019 809 C 160.668 822.475, 162.707 839.350, 163.551 846.500 C 164.395 853.650, 165.277 860.063, 165.511 860.750 C 165.873 861.811, 190.994 862.796, 191.002 861.750 C 191.003 861.612, 192.142 853.850, 193.534 844.500 C 194.925 835.150, 197.163 819.899, 198.506 810.609 C 201.223 791.822, 201.570 790.695, 202.489 797.658 C 202.841 800.321, 204.213 810.150, 205.537 819.500 C 206.862 828.850, 208.663 841.892, 209.540 848.482 C 210.416 855.072, 211.666 860.803, 212.317 861.217 C 213.722 862.111, 232.201 862.040, 236.500 861.125 L 239.500 860.486 240.714 845.493 C 242.581 822.451, 245.900 788.279, 248.048 770 C 249.114 760.925, 249.990 753.163, 249.993 752.750 C 250.002 751.721, 232.244 751.795, 231.607 752.827 C 231.326 753.281, 230.390 761.944, 229.527 772.077 C 225.708 816.917, 225.028 825.048, 224.355 834 C 223.457 845.937, 223.265 845.131, 218.497 809.500 C 216.511 794.650, 214.236 777.942, 213.443 772.372 C 212.649 766.801, 212 761.048, 212 759.588 L 212 756.932 201.250 757.216 L 190.500 757.500 189.716 764.500 C 187.589 783.485, 181.858 828.260, 180.820 834 C 179.030 843.894, 177.824 834.063, 172.663 767.500 L 171.500 752.500 162.250 752.212 L 153 751.925 153.009 755.212" stroke="none" fill="#0b8494" fill-rule="evenodd"/><path d="M 49.500 80.379 C 37.558 84.234, 26.587 93.875, 20.915 105.500 L 17.500 112.500 17.500 196 L 17.500 279.500 20.715 286.069 C 32.735 310.631, 40.544 313.184, 102.484 312.795 L 149.500 312.500 156.346 309.258 C 169.343 303.102, 180.026 289.795, 182.885 276.201 C 184.745 267.360, 184.387 122.265, 182.485 114.200 C 179.125 99.948, 169.060 88.140, 154.500 81.370 C 149.311 78.958, 56.615 78.083, 49.500 80.379 M 647.426 81.106 C 636.345 84.861, 624.647 95.767, 619.895 106.775 C 616.124 115.510, 615.897 121.254, 616.203 200 L 616.500 276.500 618.897 282.500 C 624.604 296.783, 635.917 307.324, 649.932 311.415 C 658.831 314.012, 742.391 313.757, 750.909 311.105 C 763.116 307.306, 773.200 298.433, 779.229 286.186 L 782.500 279.542 782.500 196.021 L 782.500 112.500 779.285 105.712 C 774.785 96.211, 766.592 87.896, 757.115 83.211 L 749.608 79.500 701.554 79.274 C 655.363 79.057, 653.265 79.128, 647.426 81.106 M 98.746 144.017 C 72.991 150.560, 58.740 183.828, 66.338 219.668 C 74.068 256.123, 118.057 267.692, 132.372 237.035 L 135.423 230.500 135.808 208.250 L 136.193 186 118.096 186 L 100 186 100 195 L 100 204 109.118 204 L 118.236 204 117.810 216.750 C 117.206 234.815, 115.256 238.004, 104.816 237.996 C 91.682 237.987, 84.380 226.601, 83.284 204.419 C 81.647 171.314, 91.409 159.079, 118.523 160.250 L 131 160.789 131 153.988 L 131 147.188 126.250 145.552 C 120.581 143.600, 104.023 142.676, 98.746 144.017 M 692.677 144.085 C 674.467 146.545, 666 156.188, 666 174.466 C 666 191.483, 671.749 197.418, 696.094 205.531 C 717.126 212.541, 722.963 223.076, 711.395 233.151 C 705.803 238.021, 682.701 238.208, 670.750 233.478 C 669.172 232.854, 669 233.568, 669 240.751 L 669 248.716 677.750 251.108 C 713.018 260.750, 735.539 248.186, 733.706 219.892 C 732.557 202.156, 726.147 195.764, 703.676 189.944 C 687.723 185.811, 681.966 179.732, 684.860 170.074 C 688.042 159.453, 698.144 157.294, 724.293 161.644 L 728.085 162.276 727.793 153.913 L 727.500 145.550 723.500 144.886 C 715.750 143.598, 699.422 143.174, 692.677 144.085 M 653.500 383.661 C 639.408 386.680, 628.259 395.755, 621.203 409.947 L 617.500 417.394 617.199 497.447 C 616.838 593.439, 616.638 592.030, 632.589 605.812 C 645.457 616.931, 651.227 617.956, 701 617.973 C 760.706 617.992, 776.188 611.174, 782.939 581.888 C 784.818 573.739, 784.317 423.433, 782.390 416.932 C 777.741 401.252, 766.803 389.965, 751.300 384.851 C 745.989 383.099, 660.951 382.064, 653.500 383.661 M 672 504 L 672 559 698.750 558.989 C 713.462 558.983, 727.205 558.696, 729.290 558.352 L 733.079 557.725 732.790 550.113 L 732.500 542.500 711.250 542.230 L 690 541.960 690 525.480 L 690 509 709 509 L 728 509 728 501 L 728 493 709 493 L 690 493 690 479.021 L 690 465.041 710.250 464.771 L 730.500 464.500 730.792 456.750 L 731.084 449 701.542 449 L 672 449 672 504 M 751.618 688.089 C 739.469 691.013, 727.579 701.003, 721.422 713.460 L 717.500 721.394 717.227 802.161 C 716.959 881.650, 716.987 883.027, 719.034 889.214 C 723.079 901.443, 731.845 911.337, 743.887 917.265 L 750.458 920.500 800.479 920.500 L 850.500 920.500 856 917.899 C 868.561 911.959, 878.012 901.176, 882.015 888.217 C 885.083 878.284, 885.101 729.774, 882.036 719.855 C 878.133 707.228, 869.525 697.347, 857.054 691.181 L 849.608 687.500 802.554 687.328 C 776.149 687.231, 753.796 687.565, 751.618 688.089 M 789.768 752.543 C 789.366 752.958, 783.853 753.211, 777.518 753.106 L 766 752.915 766 807.568 L 766 862.220 787.750 861.779 C 828.227 860.958, 837.189 850.783, 837.317 805.500 C 837.427 766.529, 828.499 753.206, 801.599 752.203 C 795.494 751.976, 790.171 752.129, 789.768 752.543 M 793.500 767.473 C 792.950 767.704, 790.587 768.384, 788.250 768.985 L 784 770.077 784 808.539 L 784 847 792.750 846.994 C 814.779 846.980, 817.500 842.583, 817.500 807 C 817.500 772.316, 810.289 760.440, 793.500 767.473" stroke="none" fill="#f05a7e" fill-rule="evenodd"/><path d="M 848.487 80.780 C 834.538 85.656, 823.863 96.049, 818.645 109.832 C 816.193 116.311, 814.704 262.419, 816.964 274.863 C 820.070 291.970, 833.972 307.155, 850.460 311.448 C 858.722 313.599, 940.667 313.730, 948.650 311.605 C 961.709 308.128, 972.798 298.818, 978.765 286.322 L 982.500 278.500 982.784 198 C 983.066 117.829, 983.058 117.472, 980.903 110.734 C 976.919 98.277, 966.138 86.642, 954.042 81.744 C 946.253 78.590, 857.080 77.776, 848.487 80.780 M 893 144.045 C 874.882 146.502, 867.096 154.664, 866.206 172.132 C 865.251 190.885, 870.820 197.108, 896.094 205.531 C 917.126 212.541, 922.963 223.076, 911.395 233.151 C 905.803 238.021, 882.701 238.208, 870.750 233.478 C 869.172 232.854, 869 233.568, 869 240.751 L 869 248.716 877.750 251.108 C 910.827 260.151, 934 248.929, 934 223.868 C 934 204.354, 927.399 196.658, 905.318 190.428 C 887.151 185.302, 881.871 180.049, 884.860 170.074 C 888.042 159.453, 898.144 157.294, 924.293 161.644 L 928.085 162.276 927.793 153.913 L 927.500 145.550 923.500 144.886 C 915.882 143.620, 899.471 143.168, 893 144.045 M 351 688.584 C 337.230 692.316, 324.978 703.745, 319.645 717.832 C 317.133 724.469, 315.696 873.399, 318.035 884.668 C 320.827 898.119, 330.450 910.147, 343.632 916.664 L 351.392 920.500 398.392 920.788 C 461.257 921.173, 468.177 918.854, 480.257 893.347 L 483.500 886.500 483.500 804.500 L 483.500 722.500 481.173 716.736 C 476.421 704.966, 466.028 694.578, 454.240 689.818 C 446.800 686.814, 361.303 685.791, 351 688.584 M 392.355 751.978 C 354.110 760.117, 351.342 850.217, 389 861.189 C 420.659 870.413, 437.880 850.824, 437.958 805.500 C 438.029 763.416, 422.769 745.505, 392.355 751.978 M 396.450 766.407 C 379.692 773.706, 378.587 837.013, 395.069 845.536 C 412.651 854.627, 422.369 830.625, 418.187 788.441 C 416.263 769.034, 408.496 761.160, 396.450 766.407" stroke="none" fill="#ffc300" fill-rule="evenodd"/></svg>